<?xml version="1.0" encoding="UTF-8" standalone="no"?>
<svg width="70px" height="48px" viewBox="0 0 70 48" version="1.1" xmlns="http://www.w3.org/2000/svg" xmlns:xlink="http://www.w3.org/1999/xlink">
    <!-- Generator: sketchtool 48.2 (47327) - http://www.bohemiancoding.com/sketch -->
    <title>81367D9F-CF20-4A48-9FD2-0B0BD36D5C12</title>
    <desc>Created with sketchtool.</desc>
    <defs>
        <polygon id="path-1" points="0 0.00917267081 69.9158203 0.00917267081 69.9158203 25.3091478 0 25.3091478"></polygon>
        <polygon id="path-3" points="0.0330559924 0.048 21.0040173 0.048 21.0040173 14.3494154 0.0330559924 14.3494154"></polygon>
    </defs>
    <g id="首页" stroke="none" stroke-width="1" fill="none" fill-rule="evenodd" transform="translate(-83.000000, -11.000000)">
        <g id="Group-8" transform="translate(83.000000, 11.000000)">
            <g id="logo_altra">
                <path d="M60.4552354,39.1114534 L61.1027104,39.1114534 C61.2422111,39.1114534 61.3489586,39.0939627 61.4304422,39.0687205 C61.5059344,39.0377143 61.5669472,38.9939876 61.6029957,38.9309814 C61.6454351,38.869764 61.664408,38.7989068 61.664408,38.7232795 C61.664408,38.6165466 61.6239658,38.5281988 61.548873,38.4602236 C61.4698859,38.391354 61.3450642,38.3554783 61.174408,38.3554783 L60.4552354,38.3554783 L60.4552354,39.1114534 Z M60.1485735,40.3799255 L60.1485735,38.1050435 L61.1627247,38.1050435 C61.3694294,38.1050435 61.5245078,38.1264099 61.6283595,38.1661615 C61.735107,38.2050186 61.8189872,38.2816398 61.8833951,38.3836025 C61.9487019,38.4864596 61.9779601,38.5990559 61.9779601,38.7232795 C61.9779601,38.8862609 61.9277318,39.0222112 61.8248787,39.1328199 C61.7151355,39.2473043 61.5527675,39.3171677 61.3338802,39.3462857 C61.4162625,39.3861366 61.4742796,39.4210186 61.5177175,39.458882 C61.6029957,39.5394783 61.6863766,39.639354 61.7643652,39.7626832 L62.1437233,40.3439503 C62.4299144,40.0693665 62.6123538,39.6830807 62.6123538,39.2541615 C62.6123538,38.4194783 61.9302282,37.7421118 61.092525,37.7421118 C60.2534237,37.7421118 59.5721969,38.4194783 59.5721969,39.2541615 C59.5721969,40.0887453 60.2534237,40.7661118 61.092525,40.7661118 C61.4820685,40.7661118 61.8336662,40.6206211 62.1027817,40.3799255 L61.7873324,40.3799255 L61.4820685,39.9082733 C61.3937946,39.7714286 61.3216976,39.6665839 61.2621826,39.5938385 C61.2056633,39.5209938 61.1529387,39.4715031 61.1091013,39.4413913 C61.063766,39.4113789 61.0179315,39.3919006 60.9700999,39.3802733 C60.9369472,39.3754037 60.881826,39.371528 60.8043367,39.371528 L60.4552354,39.371528 L60.4552354,40.3799255 L60.1485735,40.3799255 Z M61.092525,37.4053168 C62.1174608,37.4053168 62.9501712,38.2321491 62.9501712,39.2541615 C62.9501712,40.2760745 62.1174608,41.101913 61.092525,41.101913 C60.0651926,41.101913 59.2342796,40.2760745 59.2342796,39.2541615 C59.2342796,38.2321491 60.0651926,37.4053168 61.092525,37.4053168 Z" id="Fill-1" fill="#004727"></path>
                <path d="M66.9800942,14.4709764 C58.4634608,12.7400944 47.3582254,11.6948273 35.2114779,11.6948273 C22.7780399,11.6948273 11.4353438,12.7924671 2.84411698,14.5975851 L2.84411698,29.5132621 C11.4353438,31.3173863 22.7780399,32.4179081 35.2114779,32.4179081 C47.3582254,32.4179081 58.4634608,31.3688646 66.9800942,29.6384795 L66.9800942,14.4709764 Z" id="Fill-3" fill="#FFF000"></path>
                <g id="Group-7" transform="translate(0.000000, 9.492373)">
                    <mask id="mask-2" fill="white">
                        <use xlink:href="#path-1"></use>
                    </mask>
                    <g id="Clip-6"></g>
                    <path d="M42.4989572,0.00917267081 L42.4989572,0.984973913 C52.5051626,1.30477516 61.5903837,2.28594286 68.8782725,3.72475031 L68.8782725,21.4756075 C59.8686434,23.2545888 48.1213252,24.3318559 35.274378,24.3318559 C22.1241641,24.3318559 10.1257047,23.2031106 1.03708845,21.3494957 L1.03708845,3.85334658 C8.33576177,2.36266335 17.5096562,1.34462609 27.6490713,0.999085714 L27.6490713,0.024178882 C17.1083295,0.389098137 7.57414979,1.4998559 -2.9957204e-05,3.12539627 L-2.9957204e-05,22.0744646 C9.3650913,24.0852969 21.7292282,25.3091478 35.2831655,25.3091478 C48.5245492,25.3091478 60.6322525,24.1416447 69.9158902,22.2141913 L69.9158902,2.98616646 C62.3466034,1.41588075 52.9029943,0.350340373 42.4989572,0.00917267081" id="Fill-5" fill="#004727" mask="url(#mask-2)"></path>
                </g>
                <path d="M61.5249971,19.4515677 C61.5249971,18.8085863 61.2685635,18.3413068 60.7594907,18.0448596 C60.250418,17.748313 59.8637703,17.5964621 58.95397,17.5887106 C58.0436705,17.5828472 57.5990057,17.7269466 57.1917874,18.0253814 C56.7871655,18.3209342 56.5823581,18.7974559 56.5823581,19.4515677 L56.5823581,22.7561143 L61.5249971,22.7561143 L61.5249971,19.4515677 Z M58.9617589,16.5560646 C59.8696619,16.5560646 60.6405606,16.6215553 61.2758531,16.7511453 C61.9126434,16.8792447 62.4474793,17.0985739 62.8829572,17.4062509 C63.1013452,17.541605 63.2919729,17.6896795 63.4548402,17.8444124 C63.6187061,18.0036174 63.7552111,18.1807106 63.8624579,18.3776795 C63.9731997,18.5761391 64.050689,18.7974559 64.100418,19.0420273 C64.1486491,19.2870957 64.1721155,19.5665491 64.1721155,19.8819776 L64.1721155,27.328636 L61.5249971,27.328636 L61.5249971,23.8091329 L56.5823581,23.8091329 L56.5823581,27.328636 L54.0069372,27.328636 L54.0069372,19.9008596 C54.0069372,19.2531081 54.0986063,18.7455801 54.2799472,18.3776795 C54.461388,18.0157416 54.7514736,17.6925615 55.1518017,17.4062509 C55.5496334,17.0985739 56.056709,16.8792447 56.6759244,16.7511453 C57.2913452,16.6215553 58.0558531,16.5560646 58.9617589,16.5560646 Z" id="Fill-8" fill="#004727"></path>
                <path d="M13.6245763,19.4515677 C13.6245763,18.8085863 13.3700399,18.3413068 12.8595692,18.0448596 C12.3490984,17.748313 11.9638488,17.5964621 11.0525506,17.5887106 C10.1417518,17.5828472 9.69998288,17.7269466 9.29136662,18.0253814 C8.88624536,18.3209342 8.68193723,18.7974559 8.68193723,19.4515677 L8.68193723,22.7561143 L13.6245763,22.7561143 L13.6245763,19.4515677 Z M11.0613381,16.5560646 C11.9697404,16.5560646 12.7401398,16.6215553 13.3759315,16.7511453 C14.011224,16.8792447 14.5461598,17.0985739 14.9815378,17.4062509 C15.2009244,17.541605 15.3906534,17.6896795 15.5549187,17.8444124 C15.717786,18.0036174 15.854291,18.1807106 15.9640342,18.3776795 C16.0707817,18.5761391 16.1512668,18.7974559 16.1989986,19.0420273 C16.2468302,19.2870957 16.2701969,19.5665491 16.2701969,19.8819776 L16.2701969,27.328636 L13.6245763,27.328636 L13.6245763,23.8091329 L8.68193723,23.8091329 L8.68193723,27.328636 L6.10701569,27.328636 L6.10701569,19.9008596 C6.10701569,19.2531081 6.19868474,18.7455801 6.38052496,18.3776795 C6.56096719,18.0157416 6.85155207,17.6925615 7.24838516,17.4062509 C7.64971184,17.0985739 8.15678745,16.8792447 8.77410556,16.7511453 C9.39282168,16.6215553 10.1539344,16.5560646 11.0613381,16.5560646 Z" id="Fill-10" fill="#004727"></path>
                <path d="M43.7871569,21.6109217 L45.2567575,21.6109217 C45.9111227,21.6109217 46.4518502,21.5755429 46.8823352,21.5080646 C47.310923,21.4400894 47.6512368,21.3294807 47.9067718,21.1751453 C48.1613081,21.0227975 48.3387546,20.823841 48.4436049,20.5812571 C48.5445606,20.3395677 48.5956876,20.0455056 48.5956876,19.6975801 C48.5956876,19.0279652 48.3592254,18.5242137 47.8872996,18.1831453 C47.4167718,17.8352199 46.5376277,17.6610087 45.2567575,17.6610087 L43.7871569,17.6610087 L43.7871569,21.6109217 Z M43.7871569,27.3286857 L41.1024922,27.3286857 L41.1024922,16.6074932 L44.9841469,16.6074932 C47.4167718,16.6074932 49.1213367,16.8826733 49.8829486,17.436313 C50.6464579,17.9817043 51.0283124,18.7310211 51.0283124,19.687841 C51.0283124,20.648636 50.7059729,21.3299776 50.0652882,21.7327602 C49.4714365,22.1286857 48.4436049,22.3872696 47.1982839,22.5101019 L51.9342183,27.0423752 L49.4509658,27.5528845 L45.238184,22.6430708 L43.7871569,22.6430708 L43.7871569,27.3286857 Z" id="Fill-12" fill="#004727"></path>
                <polygon id="Fill-14" fill="#004727" points="19.77502 16.607523 22.4581869 16.607523 22.4581869 26.2747031 27.921582 26.2747031 27.921582 27.3286161 19.77502 27.3286161"></polygon>
                <polygon id="Fill-16" fill="#004727" points="35.3099572 27.328646 32.5185449 27.328646 32.5185449 17.5183602 30.3020114 17.5183602 29.6856919 18.5300373 28.9060057 18.5300373 28.9060057 16.6075528 38.9405706 16.6075528 38.9405706 18.5300373 38.23398 18.5300373 37.6176605 17.5183602 35.3099572 17.5183602"></polygon>
                <g id="Group-20" transform="translate(25.663338, 0.051379)">
                    <mask id="mask-4" fill="white">
                        <use xlink:href="#path-3"></use>
                    </mask>
                    <g id="Clip-19"></g>
                    <path d="M0.0446162625,6.60854658 C0.0202510699,6.52457143 0.0251440799,6.36636025 0.151863053,6.28775155 C0.603917261,6.01118012 0.559980029,5.90057143 1.07484451,5.60750311 C1.47766904,5.37843478 1.61467332,5.13634783 1.79012268,4.97565217 C1.88039372,4.8917764 2.15729815,4.85530435 2.35182026,4.72382609 C2.16558631,4.63508075 1.95788302,4.52198758 1.95009415,4.29152795 C1.94180599,4.10469565 2.50110699,2.89058385 2.73756919,2.97545342 C2.96184879,3.05843478 3.00229101,3.49421118 2.95306134,3.76064596 C2.90043652,4.03234783 3.0388388,4.26191304 3.0217632,4.37490683 C3.01397432,4.41863354 2.96863909,4.52198758 2.93938088,4.57436025 C2.97642796,4.56949068 3.01007989,4.55299379 3.0388388,4.52347826 C3.17494437,4.37401242 2.82144936,3.84362733 3.13879601,3.58643478 C3.28408845,3.46658385 4.59331812,3.17540373 4.66841084,3.41609938 C4.7371127,3.64318012 4.44413124,3.97848447 4.19978031,4.09982609 C3.94873894,4.22255901 3.89022254,4.40650932 3.78726961,4.46037267 C3.65276177,4.53510559 3.46742653,4.44725466 3.47721255,4.67532919 C3.48839658,4.90290683 3.8102368,5.07026087 4.11160628,5.33480745 C4.39190585,5.58275776 4.97746933,5.61763975 5.41873894,5.5472795 C6.38955207,5.38906832 8.38869615,1.78131677 10.5081683,1.75796273 C13.5575121,1.72695652 14.5030613,4.99562733 16.6254294,5.21585093 C19.0306933,5.46380124 21.1244023,3.74653416 20.013689,1.34265839 C19.7065278,0.678310559 19.1013923,0.421614907 19.0195093,0.106186335 C18.9429187,-0.183503106 20.1531897,0.672049689 20.4818203,1.2649441 C22.460893,4.82231056 18.4021912,7.14330435 15.2051583,6.792 C14.5859429,7.1364472 14.3226191,8.00750311 13.3400228,8.48352795 C13.0636177,8.69560248 12.3551298,8.72621118 12.1069843,8.97028571 C11.8294807,9.24636025 11.8808074,9.7058882 11.4828759,10.1256646 C10.6573552,10.9903602 12.4482967,13.9431056 11.769067,14.2492919 C11.4296519,14.3778882 9.04495863,14.100323 8.27216262,14.2201739 C7.12829672,14.3967702 6.40323252,14.3807702 6.05063623,14.2424348 C6.19213409,13.7616398 6.2988816,13.067677 8.62515835,12.449441 C9.79049358,12.1398758 10.8890243,13.8256398 10.9680114,13.6805466 C11.6418488,13.0084472 9.57590014,10.5618385 9.61294722,9.99021118 C9.65828245,9.27209938 9.39405991,8.29331677 8.98644223,8.22583851 C8.48615692,8.13947826 7.86055064,8.40442236 7.84447361,8.68973913 C7.82839658,8.97754037 7.98107846,10.5574658 8.32528673,10.5813168 C8.67928103,10.6079503 8.61537233,10.3507578 8.70114979,10.3454907 C8.73779743,10.3444969 8.86651355,10.333764 8.92013695,10.434236 C8.99712696,10.5715776 8.86841084,11.0452174 8.73779743,11.0728447 C8.1984679,11.1873292 8.01223395,10.9699876 7.47300428,10.0256894 C7.0424194,9.26722981 6.94006562,8.43691925 6.29498716,8.15021118 C5.64841084,7.86340373 5.77812553,7.51448447 5.48364622,7.35677019 C5.29741227,7.25590062 4.13007989,6.50419876 3.86196291,6.4988323 C3.4099087,6.48968944 3.32602853,6.96084472 2.9199087,6.84636025 C2.32605706,6.67890683 1.49564337,6.856 1.13485877,6.84337888 C0.994459344,6.83900621 1.15243367,6.53093168 1.01053638,6.55806211 C0.781363766,6.60655901 0.649751783,6.81575155 0.411292439,6.87299379 C0.26939515,6.90847205 0.0958430813,6.78226087 0.0446162625,6.60854658" id="Fill-18" fill="#004727" mask="url(#mask-4)"></path>
                </g>
                <path d="M41.2809672,46.2455752 C39.066331,45.0741963 37.4840913,43.4902957 36.5387418,41.4920845 L41.1438631,41.4920845 L41.1438631,40.6768795 L36.4022368,40.6768795 C36.4890128,39.6510907 36.5387418,38.9105193 36.5387418,38.452482 L40.6689415,38.452482 L40.6689415,37.640159 L30.4399544,37.640159 L30.6378716,38.452482 L34.2353324,38.4476124 C34.345475,39.1367056 34.3011384,40.0334012 34.2353324,40.6768795 L29.9002254,40.6768795 L30.0967447,41.4920845 L34.0978288,41.4920845 C33.8277147,43.7183702 32.3122796,45.7584199 29.5608103,47.6149168 L29.6944194,47.741128 C33.1718516,46.6298733 35.2738488,44.9305938 35.9950185,42.6469665 C36.5387418,44.958718 37.98198,46.6434882 40.3311241,47.6993888 C40.4530499,47.7517615 40.5749757,47.7556373 40.6304964,47.7110161 C41.2058745,47.2442335 41.7085563,46.8113391 41.9128645,46.6231155 C41.9781712,46.5628919 41.9611954,46.5134012 41.881709,46.485277 C41.7246334,46.429923 41.4487275,46.3348174 41.2809672,46.2455752" id="Fill-21" fill="#004727"></path>
                <path d="M18.7393894,40.9553988 C19.0119001,40.8991503 19.127535,40.7535602 19.1455093,40.5244919 C19.1689757,40.2381814 18.8978631,39.9276224 18.2654665,39.5860571 L18.0635549,39.6704298 C18.1494322,39.8994981 18.1981626,40.1556969 18.1981626,40.4400199 C18.1981626,40.582728 18.1869786,40.6855851 18.1981626,40.7389516 C18.2439971,40.9553988 18.4711726,41.0136348 18.7393894,40.9553988" id="Fill-23" fill="#004727"></path>
                <path d="M13.7937746,38.9425888 C13.9307789,39.1997814 14.0424194,39.3861168 14.1316919,39.498713 C14.4057004,39.8141416 14.7967418,39.9247503 15.2872411,39.7559056 C15.6524194,39.6296944 15.7811355,39.3433839 15.6909643,38.9425888 C15.4642882,38.3438311 14.6071127,37.9294211 13.1160428,37.7023404 L12.9800371,37.786713 C13.341321,38.0730236 13.569495,38.3933217 13.7937746,38.9425888" id="Fill-25" fill="#004727"></path>
                <path d="M17.7222924,39.2842037 L22.3309087,39.2842037 L22.3309087,43.4709366 L24.0915934,43.8659677 L24.0915934,38.8999056 L24.7011227,38.3855205 L22.7361298,38.0419677 L22.3309087,38.5146137 L19.8217932,38.5146137 C20.3664151,38.2865391 20.7946034,37.9429863 21.1095535,37.4888248 L18.605331,37.4888248 C18.605331,37.9157565 18.5584979,38.2593093 18.4712225,38.5146137 L17.7222924,38.5146137 L17.7222924,38.1700671 L15.9640043,38.1700671 L15.9640043,43.8659677 L17.7222924,43.8659677 L17.7222924,39.2842037 Z" id="Fill-27" fill="#004727"></path>
                <path d="M22.2631655,39.6704596 L21.1095136,39.6704596 C21.0651769,40.0693665 20.9754051,40.3565714 20.8393994,40.5245217 L20.8393994,39.4986335 L19.2845207,39.4986335 L19.2845207,41.040795 L17.8583581,41.040795 L17.8583581,41.7677516 L19.2845207,41.7677516 L19.2845207,41.9831056 L18.3341783,41.9831056 C18.1981726,42.5547329 18.0406976,43.066236 17.8583581,43.5233789 L17.9948631,43.5660124 C18.5355906,43.2224596 18.9660756,42.8652919 19.2845207,42.4946087 L19.2845207,43.5660124 L20.8393994,43.5660124 L20.8393994,42.3237764 C20.9618245,42.5314783 21.1514536,42.9798758 21.2255478,43.202087 C21.2333367,43.2273292 21.2718816,43.2914286 21.2855621,43.3020621 C21.4586148,43.4417888 21.6717104,43.4572919 21.9247489,43.3515528 C22.1500271,43.2379627 22.1904693,43.0594783 22.1266605,42.7935404 C22.0530656,42.4878509 21.6522382,42.169441 20.8393994,41.8521242 L20.8393994,41.7677516 L22.1266605,41.7677516 L22.1266605,41.040795 L20.8393994,41.040795 L20.8393994,40.9554286 C21.5639643,40.5827578 22.0349914,40.1557267 22.2631655,39.6704596" id="Fill-29" fill="#004727"></path>
                <path d="M13.7264807,42.0685615 C13.8629857,42.3237665 13.9746262,42.5110957 14.0662953,42.6246857 C14.3345121,42.9109963 14.7089772,43.0283627 15.1487489,42.8818783 C15.5671512,42.7420522 15.7138417,42.4363627 15.6236705,42.0685615 C15.3973937,41.4406857 14.493485,41.0136547 12.9146405,40.7826981 L12.8459387,40.9116919 C13.206224,41.1669963 13.4993053,41.5541764 13.7264807,42.0685615" id="Fill-31" fill="#004727"></path>
                <path d="M24.5630999,46.6890932 C23.0296904,46.5202484 21.7887632,46.0485963 20.8394194,45.2799006 L24.5630999,45.2799006 L24.5630999,44.4628075 L20.8394194,44.4628075 C20.8925435,44.354087 21.0442268,43.9231801 21.0442268,43.8659379 L18.8086205,43.8659379 C18.8086205,44.1231304 18.7617874,44.3229814 18.6721155,44.4628075 L15.555368,44.4628075 L15.7518873,45.2799006 L18.3341983,45.2799006 C17.8354108,46.1320745 16.8436277,46.9763975 15.3525578,47.805118 L15.4218588,47.9313292 C17.994883,47.3334658 19.6199615,46.5328696 20.2981926,45.535205 C20.7492482,46.7347081 21.7887632,47.5324224 23.4138417,47.9313292 C23.6049686,47.9710807 23.6888488,47.9526957 23.7483638,47.8828323 L23.7497618,47.8837267 L24.6635563,46.8191801 C24.6879215,46.7909565 24.6962097,46.7715776 24.6962097,46.7579627 C24.6962097,46.7298385 24.6581641,46.6949565 24.5630999,46.6890932" id="Fill-33" fill="#004727"></path>
                <path d="M14.9459387,43.2671205 C14.1784351,44.6655801 13.4563666,45.6361143 12.7786348,46.1757416 C13.1394194,46.6619031 13.4563666,47.2316422 13.7264807,47.888636 C14.35698,47.3180025 14.7640984,46.6891329 14.9459387,46.0067975 C15.1717161,45.2935553 15.2385207,44.3783752 15.1487489,43.2671205 L14.9459387,43.2671205 Z" id="Fill-35" fill="#004727"></path>
                <path d="M54.9684437,38.5175056 L54.4945207,39.0328845 L50.8400414,39.0328845 L50.8400414,38.1322137 C50.8400414,37.9061267 50.8586148,37.6624497 50.9058474,37.4053565 L48.6688431,37.4053565 C48.6688431,37.6624497 48.6035364,38.9765366 48.6035364,39.0328845 L45.7580014,39.0328845 L45.9544208,39.8451081 L48.5323381,39.8451081 C48.3992282,43.6126609 47.5181869,46.1815056 45.8911113,47.5508472 L46.0963181,47.6382012 C48.0349486,46.4396919 49.235933,45.3827975 49.6854907,44.469605 C50.318786,43.5281888 50.6766748,41.9870211 50.7718388,39.8451081 L53.4286434,39.8451081 L54.0234936,39.8451081 L54.5652197,39.8451081 L54.5652197,40.3847354 L54.5652197,40.9767354 L54.5652197,45.4109217 C54.6071598,45.8389466 54.3604123,46.0951453 53.8191854,46.1815056 C53.2774593,46.2959901 52.057602,46.3105988 50.161311,46.2242385 L50.161311,46.396959 L52.3837361,47.5422012 C52.5422097,47.6285615 52.6411683,47.6110708 52.8713395,47.5945739 C54.315077,47.4809839 55.2863894,47.2510211 55.7841783,46.9113441 C56.323408,46.5677913 56.59502,46.0106733 56.59502,45.2400894 L56.59502,39.3337043 L57.1372454,38.732959 L54.9684437,38.5175056 Z" id="Fill-37" fill="#004727"></path>
            </g>
        </g>
    </g>
</svg>